<?xml version="1.0" standalone="no"?>
<!DOCTYPE svg PUBLIC "-//W3C//DTD SVG 20010904//EN"
 "http://www.w3.org/TR/2001/REC-SVG-20010904/DTD/svg10.dtd">
<svg version="1.0" xmlns="http://www.w3.org/2000/svg"
 width="1280.000000pt" height="1187.000000pt" viewBox="0 0 1280.000000 1187.000000"
 preserveAspectRatio="xMidYMid meet">
<metadata>
Created by potrace 1.15, written by Peter Selinger 2001-2017
</metadata>
<g transform="translate(0.000000,1187.000000) scale(0.100000,-0.100000)"
fill="#ffc107" stroke="none">
<path d="M5905 11860 c-269 -4 -953 -13 -1520 -19 -566 -6 -1166 -14 -1332
-17 l-302 -6 -43 -37 c-34 -29 -52 -37 -97 -41 l-54 -5 -44 -74 c-24 -40 -61
-93 -82 -117 -64 -73 -104 -227 -133 -509 -20 -194 -16 -959 6 -1175 35 -354
96 -564 174 -604 99 -51 857 -83 2257 -95 l770 -6 3 -342 2 -343 -147 0 c-82
0 -438 -5 -793 -10 -355 -5 -1003 -14 -1440 -20 l-795 -11 -80 -54 c-156 -105
-304 -277 -355 -413 -42 -110 -96 -437 -116 -697 -3 -49 -10 -94 -14 -100 -5
-5 -11 -80 -15 -165 -6 -123 -11 -162 -26 -187 -17 -31 -11 -52 11 -38 6 4 10
-9 10 -31 0 -28 -19 -66 -89 -178 -234 -374 -651 -1082 -803 -1366 -225 -418
-348 -678 -414 -873 -96 -281 -142 -879 -131 -1687 4 -228 11 -444 16 -480 6
-36 24 -171 41 -300 27 -211 52 -403 81 -620 5 -41 18 -142 29 -225 11 -82 24
-186 30 -230 6 -44 20 -150 30 -235 11 -85 23 -169 26 -186 l6 -31 1396 -7
c768 -3 2137 -11 3042 -16 905 -5 2412 -14 3350 -20 938 -5 2192 -13 2786 -16
1060 -7 1082 -7 1087 12 4 10 15 77 26 149 11 72 27 168 35 215 8 47 17 103
20 126 2 22 7 56 10 75 3 19 15 91 26 162 11 70 29 183 40 252 11 69 29 181
40 250 11 69 29 182 40 253 12 70 30 181 41 247 27 152 38 406 39 852 0 609
-38 1107 -105 1368 -50 194 -179 479 -386 855 -44 80 -91 169 -105 199 -40 87
-195 364 -216 387 -27 31 -200 316 -202 334 -1 19 -241 416 -275 455 -14 17
-54 78 -89 136 l-63 107 -3 213 c-2 118 -4 269 -5 337 -1 100 -4 122 -16 122
-8 0 -16 13 -19 33 -11 65 -45 365 -51 450 -6 72 -10 87 -22 83 -10 -4 -21 11
-39 51 -35 78 -115 192 -177 251 -29 27 -97 79 -152 115 l-100 66 -1410 21
c-775 11 -1481 20 -1567 20 l-158 0 0 345 0 345 373 0 c673 0 1747 26 2117 50
323 22 392 37 434 99 101 145 144 527 133 1181 -8 459 -33 726 -86 911 -27 95
-45 124 -133 222 l-80 87 -85 0 c-76 0 -94 4 -166 36 l-82 36 -250 13 c-286
16 -881 40 -1320 55 -416 14 -1750 20 -2340 10z"/>
</g>
</svg>
